<svg width="60" height="52" viewBox="0 0 60 52" fill="none" xmlns="http://www.w3.org/2000/svg">
<path fill-rule="evenodd" clip-rule="evenodd" d="M60 49.1697V49.1701V51.1403H49.8859H49.8853H24.2188H24.2184H3.2727V51.1413H0V49.1705H2.29078V46.7605H0V44.7894H2.29078V42.382H0V40.4112H2.29078V38.0012H0V36.0301H2.29078V33.6227H0V31.652H2.29078V29.2419H0V27.2708H2.29078V24.8604H0V22.8896H2.29078V20.4819H0V18.5112H2.29078V16.1011H0V14.1304H2.29078V11.7224H0V9.75166H2.29078V7.34182H0V5.37107H2.29078V2.96313H0V0.992023H2.29066H3.27258H4.25449V49.0115C7.27383 47.9901 8.23559 42.1949 9.09293 37.026L9.09319 37.0244C9.96167 31.7912 10.7118 27.2709 13.7454 27.2709C16.0314 27.2709 17.0208 29.8372 17.7411 33.3407C18.5749 29.5375 19.2117 25.4331 19.8233 21.4881L19.8234 21.4874V21.4874C21.5268 10.5004 22.9978 1.01249 28.3641 1.01249C33.7306 1.01249 35.2015 10.5 36.9048 21.4867L36.905 21.4881C37.1018 22.7568 37.3011 24.0422 37.5087 25.3288C38.6345 19.0051 40.0193 14.1313 43.5927 14.1313C47.8777 14.1313 49.0158 21.1372 50.3334 29.2494L50.334 29.2528C51.851 38.5888 53.5702 49.1697 60 49.1697ZM13.7457 29.2417C12.3754 29.2417 11.6295 33.7373 11.0304 37.3497C10.3017 41.7413 9.50637 46.5302 7.3568 49.1501C11.9734 48.8308 14.7074 44.2056 16.5646 37.9674C16.5301 37.7608 16.4959 37.5548 16.4619 37.3497L16.4617 37.3487C15.8621 33.7364 15.116 29.2417 13.7457 29.2417ZM17.2849 41.8967C17.8954 44.7774 18.7275 47.4477 20.1513 49.1701H12.4788C14.5138 47.5377 16.061 44.9887 17.2849 41.8967ZM24.2184 49.1697V49.1701H27.1854V49.1697C33.1779 49.1697 35.0788 39.9789 36.5377 31.1709C35.9405 28.0838 35.445 24.8908 34.9644 21.7908C33.531 12.5442 32.0484 2.98336 28.3638 2.98336C24.6795 2.98336 23.1969 12.5446 21.7635 21.7908C20.9099 27.2975 20.01 33.0974 18.5733 38.0746C19.4836 43.4811 20.6448 49.1697 24.2184 49.1697ZM32.2072 49.1701C35.0562 46.529 36.5623 41.5458 37.6375 36.1613C39.0643 41.7913 41.0565 46.6088 44.2493 49.1701H32.2072ZM38.79 29.5665C38.705 30.0897 38.6193 30.6167 38.5323 31.1454C40.4289 40.8156 43.3371 49.1698 49.8858 49.1697V49.1701H54.9782C50.9781 45.4619 49.6252 37.1363 48.3954 29.5665L48.3953 29.5659C47.3201 22.9468 46.2084 16.1024 43.5927 16.1024C40.977 16.1024 39.8652 22.9469 38.79 29.5665Z" fill="#FB7710"/>
<rect x="15.2241" y="5.46964" width="2.68657" height="1.79104" fill="#FB7710"/>
<rect x="10.7461" y="5.46964" width="2.68657" height="1.79104" fill="#FB7710"/>
<rect x="6.26855" y="5.46964" width="2.68657" height="1.79104" fill="#FB7710"/>
<rect x="6.26855" y="9.94725" width="10.7463" height="1.79104" fill="#FB7710"/>
<rect x="6.26855" y="14.4249" width="6.26866" height="1.79104" fill="#FB7710"/>
</svg>
