<svg width="50" height="62" viewBox="0 0 50 62" fill="none" xmlns="http://www.w3.org/2000/svg">
<path d="M24.9076 1.92793C34.4238 1.92793 42.5946 9.06787 43.9401 18.4272L45.8635 18.1386C44.3253 7.81534 35.3868 0 24.9102 0C14.4336 0 5.49519 7.81534 3.95703 18.2366L5.88039 18.5252C7.22054 9.06799 15.3912 1.92793 24.9076 1.92793Z" fill="#FB7710"/>
<path d="M32.2198 38.9633L31.6418 39.1572V44.2865H28.757V41.3832H26.8328V44.2865H22.9873V41.3832H21.0631V44.2865H18.1783V39.1572L17.6002 38.8677C11.5429 36.3522 7.31193 31.0288 6.06089 24.6403L4.13672 25.0281C5.48284 31.9001 10.0014 37.5129 16.2542 40.4162V44.2865H14.3327V46.223H16.2569H33.566H35.4901V44.2865H33.566V40.5118C39.9137 37.7041 44.3374 31.9956 45.6835 25.1237L43.7593 24.7359C42.6031 31.1244 38.2772 36.4478 32.2198 38.9633Z" fill="#FB7710"/>
<rect x="14.3887" y="48.2014" width="21.223" height="1.97842" fill="#FB7710"/>
<path fill-rule="evenodd" clip-rule="evenodd" d="M14.3887 53.922H16.3188V57.8063H21.14V58.7768C21.14 59.5526 21.4286 60.3311 22.0084 60.8162C22.5882 61.4001 23.2633 61.6906 24.0338 61.6906H25.9639C26.7344 61.6906 27.5075 61.4001 27.9893 60.8162C28.5691 60.2324 28.8577 59.5526 28.8577 58.7768V57.8063H33.6816V53.922H35.6117V51.9784H14.3887V53.922ZM26.9275 58.7766C26.9275 59.0672 26.8323 59.2618 26.639 59.4564C26.4457 59.651 26.2525 59.747 25.9639 59.747H24.0338C23.7453 59.747 23.552 59.651 23.3587 59.4564C23.1654 59.2618 23.0702 59.0672 23.0702 58.7766V57.8062H26.9277V58.7766H26.9275ZM18.2462 55.8628H31.7514V53.9192H18.2462V55.8628Z" fill="#FB7710"/>
<rect x="40.2876" y="20.1439" width="1.97842" height="1.97842" fill="#FB7710"/>
<rect x="44.2446" y="20.1439" width="1.97842" height="1.97842" fill="#FB7710"/>
<rect x="48.0215" y="20.1439" width="1.97842" height="1.97842" fill="#FB7710"/>
<rect y="20.1439" width="1.97842" height="1.97842" fill="#FB7710"/>
<rect x="3.77686" y="20.1439" width="1.97842" height="1.97842" fill="#FB7710"/>
<rect x="7.5542" y="20.1439" width="1.97842" height="1.97842" fill="#FB7710"/>
<path fill-rule="evenodd" clip-rule="evenodd" d="M37.8809 30.848C37.5933 30.9433 37.3057 30.848 37.1131 30.6546C36.3453 29.979 35.1923 30.0744 34.5196 30.7499C33.8468 31.4254 33.7519 32.5858 34.4246 33.3568C34.6172 33.5475 34.6172 33.839 34.6172 34.1277C34.6172 34.4164 34.4246 34.6098 34.232 34.8032C32.4035 36.1544 30.2902 37.0233 28.0792 37.4101C27.7915 37.4101 27.504 37.4101 27.3114 37.2167C27.1188 37.0233 26.9261 36.8299 26.9261 36.5412C26.8285 35.5742 25.9631 34.8032 25.0027 34.8032C23.9446 34.8032 23.1741 35.5768 23.0792 36.5412C23.0792 36.8299 22.8866 37.0233 22.694 37.2167C22.5014 37.3148 22.3088 37.4101 22.1162 37.4101H21.9236C19.7126 36.928 17.5965 36.0589 15.7707 34.8032C15.5781 34.6098 15.3855 34.4164 15.3855 34.1277C15.3855 33.8389 15.3855 33.5502 15.5781 33.3568C16.251 32.5832 16.1559 31.4254 15.4832 30.7499C14.8104 30.0744 13.6547 30.0744 12.8869 30.6546C12.697 30.848 12.4067 30.848 12.1191 30.848C11.8316 30.848 11.639 30.6546 11.4464 30.4612C10.1008 28.6252 9.2354 26.5032 8.85017 24.2831C8.85017 23.9943 8.85017 23.7056 9.04279 23.5122C9.2354 23.3188 9.42801 23.1254 9.71554 23.1254C10.6786 23.0273 11.4464 22.1584 11.4464 21.194C11.4464 20.1316 10.676 19.358 9.71554 19.2627C9.42801 19.2627 9.2354 19.0693 9.04279 18.8759C8.85017 18.6851 8.75525 18.3937 8.85017 18.1049C9.33032 15.8849 10.1958 13.7601 11.4464 11.9269C11.639 11.7335 11.8316 11.5401 12.1191 11.5401C12.4068 11.5401 12.6943 11.5401 12.8869 11.7335C13.6574 12.4091 14.8104 12.3137 15.4832 11.6382C16.1559 10.9627 16.2508 9.80226 15.5781 9.03131C15.3855 8.84057 15.3855 8.54908 15.3855 8.26037C15.3855 8.06697 15.5781 7.77548 15.7707 7.68017C17.5992 6.32902 19.7126 5.46011 21.9236 5.07331C22.2112 5.07331 22.4987 5.07331 22.6914 5.26671C22.884 5.46011 23.0766 5.65351 23.0766 5.94222C23.1743 6.90922 24.037 7.68017 25 7.68017C25.9631 7.68017 26.8286 6.90657 26.9235 5.94222C26.9235 5.65351 27.0212 5.46011 27.3087 5.26671C27.4987 5.07331 27.789 4.978 28.0765 5.07331C30.2875 5.55542 32.4036 6.42446 34.2294 7.68017C34.422 7.77826 34.6146 7.97166 34.6146 8.26037C34.6146 8.5492 34.6146 8.83791 34.422 9.03131C33.7491 9.80491 33.8442 10.9627 34.5169 11.6382C35.1897 12.3137 36.3453 12.3137 37.1131 11.7335C37.3031 11.5401 37.5934 11.5401 37.8809 11.5401C38.1685 11.5401 38.3611 11.7335 38.5537 11.9269C39.8993 13.7629 40.7647 15.8849 41.1499 18.1049C41.1499 18.3938 41.1499 18.6825 40.9573 18.8759C40.7647 19.0693 40.5721 19.2627 40.2845 19.2627C39.3215 19.3608 38.5537 20.2297 38.5537 21.194C38.5537 22.2565 39.3241 23.0301 40.2845 23.1254C40.5721 23.1254 40.7647 23.3188 40.9573 23.5122C41.1499 23.7029 41.2448 23.9944 41.1499 24.2831C40.6698 26.5032 39.8043 28.6279 38.5537 30.4612C38.3611 30.6546 38.1685 30.848 37.8809 30.848ZM32.4035 33.6455C31.7307 32.199 32.0183 30.5565 33.1713 29.3988C34.2293 28.2411 35.9601 27.9523 37.4034 28.5297C38.0763 27.372 38.5564 26.1163 38.9417 24.7651C37.4985 24.1849 36.5381 22.8338 36.5381 21.1939C36.5381 19.5541 37.4984 18.2029 38.844 17.5274C38.5563 16.2716 37.9785 14.9205 37.3057 13.7628C35.8652 14.4383 34.1343 14.0542 33.0764 12.9919C31.9233 11.8341 31.7307 10.1916 32.3086 8.74514C31.1555 8.0695 29.9049 7.58739 28.5593 7.20059C27.9815 8.6497 26.6358 9.61405 25.0027 9.61405C23.3695 9.61405 22.0239 8.6497 21.4461 7.39399C20.1953 7.68282 18.8498 8.26302 17.6968 8.93854C18.3696 10.385 18.082 12.0275 16.929 13.1853C15.871 14.2449 14.1402 14.5364 12.6996 13.9562C12.0267 15.1139 11.5466 16.3697 11.1614 17.7208C12.6046 18.301 13.565 19.6521 13.565 21.292C13.565 22.9319 12.6046 24.283 11.1614 24.8632C11.449 26.119 12.0269 27.4701 12.6996 28.6278C14.1402 27.9523 15.871 28.3364 16.929 29.3988C18.082 30.5565 18.2746 32.199 17.6968 33.6455C18.8498 34.3211 20.1004 34.8032 21.4461 35.19C22.0239 33.7409 23.3695 32.7766 25.0027 32.7766C26.6358 32.7766 27.9815 33.7436 28.6542 35.19C29.9049 34.9012 31.2505 34.321 32.4035 33.6455Z" fill="#FB7710"/>
<path fill-rule="evenodd" clip-rule="evenodd" d="M16.3667 21.223C16.3667 16.426 20.2027 12.5899 24.9998 12.5899C29.7941 12.5899 33.6329 16.4152 33.6329 21.223C33.6329 26.0201 29.7968 29.8561 24.9998 29.8561C20.2027 29.8561 16.3667 26.0201 16.3667 21.223ZM18.2861 21.2258C18.2861 24.967 21.2585 27.9395 24.9998 27.9395C28.7383 27.9395 31.7135 24.9643 31.7135 21.2258C31.7135 17.4846 28.741 14.5121 24.9998 14.5121C21.2586 14.5121 18.2861 17.4846 18.2861 21.2258Z" fill="#FB7710"/>
<path fill-rule="evenodd" clip-rule="evenodd" d="M21.043 21.1331C21.043 19.0073 22.7813 17.2662 24.9099 17.2662C27.0357 17.2662 28.7768 19.0073 28.7768 21.1331C28.7768 23.2589 27.0357 25 24.9099 25C22.7841 25 21.043 23.2589 21.043 21.1331ZM22.975 21.133C22.975 22.1973 23.8456 23.0678 24.9099 23.0678C25.9715 23.0678 26.8446 22.1973 26.8447 21.133C26.8447 20.0686 25.9741 19.1981 24.9099 19.1981C23.8455 19.1981 22.975 20.0687 22.975 21.133Z" fill="#FB7710"/>
</svg>
