<svg width="55" height="57" viewBox="0 0 55 57" fill="none" xmlns="http://www.w3.org/2000/svg">
<rect x="19.5278" y="23.8274" width="2.32899" height="2.14984" fill="#FB7710"/>
<rect x="14.8696" y="23.8274" width="2.32899" height="2.14984" fill="#FB7710"/>
<rect x="10.2119" y="23.8274" width="2.32899" height="2.14984" fill="#FB7710"/>
<rect x="42.8174" y="54.1042" width="8.95765" height="2.14984" fill="#FB7710"/>
<rect x="1.07471" y="1.07492" width="8.95765" height="2.14984" fill="#FB7710"/>
<path fill-rule="evenodd" clip-rule="evenodd" d="M9.45575 48.7349L8.59912 48.0068L28.9993 27.5896H52.8499V28.6262C52.8499 36.9491 48.9769 44.3826 42.9412 49.2198L43.3402 49.6192H51.8131V51.6923H42.4825L41.2567 50.4653C37.0434 53.3265 31.9628 55 26.4988 55C20.2625 55 14.2096 52.7746 9.45575 48.7349ZM41.4676 47.7447C46.8786 43.4914 50.4477 36.9921 50.757 29.6629H29.8574L11.6711 47.8639C15.907 51.1369 21.1289 52.9269 26.4986 52.9269C31.39 52.9269 35.9482 51.4715 39.7638 48.9709L35.8851 45.0886L37.3495 43.6227L41.4676 47.7447Z" fill="#FB7710"/>
<path fill-rule="evenodd" clip-rule="evenodd" d="M26.3738 2.14984H27.4104V26.0005L6.99289 46.4007L6.2648 45.5438C2.22513 40.7898 0 34.737 0 28.5009C0 20.1875 3.87413 12.7624 9.91204 7.92929L9.51535 7.53294H1.0355V5.4619H10.3741L11.5976 6.68443C15.8155 3.82333 20.9026 2.14984 26.3738 2.14984ZM7.13597 43.3284L25.3372 25.1427V4.24266C20.8326 4.43279 16.6419 5.85507 13.0928 8.1783L16.9775 12.0597L15.5117 13.5241L11.386 9.40193C5.71911 13.8508 2.07286 20.7583 2.07286 28.5008C2.07286 33.8702 3.86361 39.0924 7.13597 43.3284Z" fill="#FB7710"/>
<path d="M31.9968 16.6612L44.0716 4.54095C43.4885 4.13687 42.887 3.759 42.27 3.40391L29.9185 15.8029C30.6379 16.0354 31.3323 16.3229 31.9968 16.6612Z" fill="#FB7710"/>
<path d="M35.1384 18.8111L46.9379 6.91475C46.4346 6.43991 45.912 5.98639 45.3715 5.55375L33.5015 17.5215C34.0776 17.9122 34.6262 18.3417 35.1384 18.8111Z" fill="#FB7710"/>
<path d="M38.5995 1.61238L29.5601 10.5239V13.4365L40.6676 2.48561C39.9949 2.16442 39.3038 1.87512 38.5995 1.61238Z" fill="#FB7710"/>
<path d="M29.5601 0V2.86645L32.4265 0.150838C31.4848 0.0537787 30.5289 0 29.5601 0Z" fill="#FB7710"/>
<path d="M34.3797 0.53746L29.5601 5.33428V8.24104L36.7262 1.10839C35.958 0.88234 35.1754 0.691054 34.3797 0.53746Z" fill="#FB7710"/>
<path d="M37.4426 21.6775L49.4463 9.64415C49.0142 9.09805 48.5609 8.5699 48.0864 8.06189L36.189 19.9893C36.6479 20.5182 37.0636 21.085 37.4426 21.6775Z" fill="#FB7710"/>
<path d="M49.6652 25.2606L54.4624 20.4409C54.3089 19.6444 54.1176 18.8621 53.8912 18.0945L46.7588 25.2606H49.6652Z" fill="#FB7710"/>
<path d="M54.8489 22.5733L52.1338 25.4397H55.0002V25.4394C55.0002 24.4709 54.9465 23.5152 54.8489 22.5733Z" fill="#FB7710"/>
<path d="M39.1551 25.2606L51.5962 12.7384C51.2437 12.1185 50.868 11.5141 50.4664 10.9283L38.3389 23.1343C38.6634 23.8157 38.9391 24.5251 39.1551 25.2606Z" fill="#FB7710"/>
<path d="M44.2967 25.4397L53.2084 16.4004C52.9451 15.6964 52.6565 15.0049 52.3349 14.3322L41.3843 25.4397H44.2967Z" fill="#FB7710"/>
</svg>
